PathFileType	4	(X/Y/Z)	/home/utkubuntu/opensim/opensim_mycode/release_code/bioimitation/imitation_envs/data/02905/02905_PRE/experimental_data/static.trc
DataRate	CameraRate	NumFrames	NumMarkers	Units	OrigDataRate	OrigDataStartFrame	OrigNumFrames
100.000000	100.000000	4	53	mm	100.000000	875	1000
Frame#	Time	C7			CLAV			LANK			LASI			LBHD			LELB			LFHD			LFIN			LFMH			LHEE			LKNE			LKNI			LMED			LMET			LMIF			LPSI			LSHO			LTAD			LTHAP			LTHI			LTIAD			LTIB			LTOE			LTTU			LWRA			LWRB			RANK			RASI			RBAK			RBHD			RELB			RFHD			RFIN			RFMH			RHEE			RKNE			RKNI			RMED			RMET			RMIF			RPSI			RSHO			RTAD			RTHAP			RTHI			RTIAD			RTIB			RTOE			RTTU			RWRA			RWRB			STRN			T10			
		X1	Y1	Z1	X2	Y2	Z2	X3	Y3	Z3	X4	Y4	Z4	X5	Y5	Z5	X6	Y6	Z6	X7	Y7	Z7	X8	Y8	Z8	X9	Y9	Z9	X10	Y10	Z10	X11	Y11	Z11	X12	Y12	Z12	X13	Y13	Z13	X14	Y14	Z14	X15	Y15	Z15	X16	Y16	Z16	X17	Y17	Z17	X18	Y18	Z18	X19	Y19	Z19	X20	Y20	Z20	X21	Y21	Z21	X22	Y22	Z22	X23	Y23	Z23	X24	Y24	Z24	X25	Y25	Z25	X26	Y26	Z26	X27	Y27	Z27	X28	Y28	Z28	X29	Y29	Z29	X30	Y30	Z30	X31	Y31	Z31	X32	Y32	Z32	X33	Y33	Z33	X34	Y34	Z34	X35	Y35	Z35	X36	Y36	Z36	X37	Y37	Z37	X38	Y38	Z38	X39	Y39	Z39	X40	Y40	Z40	X41	Y41	Z41	X42	Y42	Z42	X43	Y43	Z43	X44	Y44	Z44	X45	Y45	Z45	X46	Y46	Z46	X47	Y47	Z47	X48	Y48	Z48	X49	Y49	Z49	X50	Y50	Z50	X51	Y51	Z51	X52	Y52	Z52	X53	Y53	Z53	

876	8.75	771.801025390625	1445.286010742188	-282.5469970703122	873.2440185546875	1348.526977539062	-268.4760131835935	723.780029296875	77.95099639892587	-362.4809875488281	898.2899780273438	945.1190185546876	-360.794006347656	804.6589965820312	1541.251953125	-354.4670104980465	712.2869873046875	1098.406982421875	-553.533020019531	932.8359985351562	1633.381958007812	-322.0960083007809	792.3319702148438	854.3120117187501	-683.6979980468748	862.7990112304688	36.3279991149903	-290.3890075683594	672.156005859375	39.31499862670906	-334.0660095214844	781.8809814453125	469.3800048828126	-383.7950134277343	777.6729736328125	458.2520141601563	-267.6969909667968	729.427001953125	88.30699920654303	-282.260009765625	833.760009765625	27.50399971008309	-384.2109985351562	803.802001953125	73.72799682617195	-329.3680114746094	731.9400024414062	959.1030273437501	-303.7160034179685	798.27197265625	1383.887939453125	-437.9440002441403	857.43798828125	527.7899780273439	-315.1430053710936	904.2119750976562	692.7030029296876	-319.3370056152342	808.1129760742188	565.5159912109376	-430.5820007324218	776.89697265625	208.1699981689454	-323.2000122070312	743.427001953125	299.1409912109376	-435.3039855957031	858.9190063476562	40.76800155639656	-335.9219970703125	811.3560180664062	384.0360107421876	-325.1419982910155	820.6510009765625	890.5139770507814	-638.294006347656	754.64599609375	890.3270263671876	-662.0219726562498	713.1209716796875	75.05999755859378	-101.588996887207	876.3809814453125	958.0150146484375	-115.2040023803709	696.1690063476562	1339.233032226562	-158.8930053710935	793.1329956054688	1526.870971679688	-195.1109924316403	681.7540283203125	1102.201049804688	-18.83499908447241	917.0150146484375	1617.631958007812	-198.3679962158199	745.1220092773438	853.5910034179688	154.5870056152346	854.4829711914062	36.14400100708011	-159.3339996337891	653.6539916992188	35.17599868774417	-131.3520050048828	796.8790283203125	474.9700012207031	-93.96499633789053	794.458984375	463.9349975585938	-213.5310058593749	715.739990234375	84.93099975585942	-184.7890014648437	813.9290161132812	26.76399993896486	-65.97599792480469	802.1859741210938	67.44999694824222	-130.4040069580078	723.06298828125	965.864990234375	-201.8990020751951	777.4119873046875	1392.578002929688	-100.5869979858395	873.6890258789062	553.7570190429688	-140.0440063476561	907.0869750976562	720.0700073242188	-120.9960021972655	806.1669921875	588.885009765625	-41.20999908447253	787.927978515625	256.3250122070313	-143.5899963378906	738.3330078125	297.9079895019531	-35.35400009155267	846.8889770507812	39.52700042724612	-114	828.6530151367188	394.6430053710938	-144.917999267578	775.81201171875	895.3309936523438	104.4499969482424	705.3599853515625	890.2509765625	116.5250015258791	894.8350219726562	1190.4189453125	-259.0409851074216	690.9169921875	1147.391967773438	-270.7990112304685	
877	8.76	771.7739868164062	1445.287963867188	-282.5409851074215	873.2100219726562	1348.5419921875	-268.4700012207028	723.7760009765625	77.95200347900399	-362.4809875488281	898.2369995117188	945.1250000000001	-360.7900085449216	804.6229858398438	1541.256958007812	-354.462005615234	712.2459716796875	1098.412963867188	-553.512023925781	932.8070068359375	1633.378051757812	-322.0960083007809	792.3359985351562	854.3330078125001	-683.6760253906248	862.7969970703125	36.33000183105475	-290.3919982910156	672.155029296875	39.30899810791023	-334.0660095214844	781.8670043945312	469.3789978027344	-383.7749938964843	777.64501953125	458.2500000000001	-267.6870117187499	729.4219970703125	88.30200195312506	-282.2569885253906	833.7559814453125	27.50499916076669	-384.2109985351562	803.801025390625	73.72899627685554	-329.364990234375	731.9010009765625	959.1099853515626	-303.6910095214841	798.2579956054688	1383.902954101562	-437.950988769531	857.4169921875	527.8010253906251	-315.1319885253905	904.1690063476562	692.7130126953126	-319.3250122070311	808.0679931640625	565.5200195312501	-430.5710144042968	776.8880004882812	208.1710052490235	-323.2000122070312	743.39697265625	299.1409912109376	-435.2990112304687	858.9130249023438	40.77000045776374	-335.9249877929688	811.333984375	384.0369873046876	-325.1380004882811	820.6510009765625	890.5269775390626	-638.252990722656	754.6229858398438	890.3319702148439	-661.9569702148435	713.1199951171875	75.056999206543	-101.5869979858398	876.3469848632812	958.02099609375	-115.1920013427732	696.10302734375	1339.22900390625	-158.9100036621091	793.0980224609375	1526.887939453125	-195.1040039062497	681.7490234375	1102.182006835938	-18.84799957275366	916.9869995117188	1617.639038085938	-198.3679962158199	745.2490234375	853.5590209960938	154.5350036621096	854.4829711914062	36.14500045776371	-159.3339996337891	653.656005859375	35.1710014343262	-131.3509979248047	796.8629760742188	474.9679870605469	-93.9530029296874	794.4400024414062	463.9289855957032	-213.522003173828	715.7410278320312	84.93099975585942	-184.7879943847656	813.9199829101562	26.76300048828126	-65.97899627685547	802.1840209960938	67.45200347900393	-130.4010009765625	723.0050048828125	965.8670043945312	-201.8840026855466	777.3670043945312	1392.569946289062	-100.5930023193356	873.655029296875	553.7579956054688	-140.0350036621093	907.0549926757812	720.0750122070312	-120.970001220703	806.1170043945312	588.885986328125	-41.19800186157214	787.9249877929688	256.3280029296876	-143.5899963378906	738.3259887695312	297.9070129394531	-35.34700012207025	846.8889770507812	39.5299987792969	-114.0080032348633	828.6489868164062	394.6459960937501	-144.9100036621093	775.9359741210938	895.343017578125	104.3750000000002	705.4630126953125	890.219970703125	116.4919967651369	894.7869873046875	1190.421997070312	-259.0480041503903	690.8839721679688	1147.39599609375	-270.794006347656	
878	8.77	771.7449951171875	1445.288940429688	-282.5390014648434	873.1740112304688	1348.547973632812	-268.4630126953122	723.7730102539062	77.95099639892587	-362.4760131835938	898.1840209960938	945.1290283203126	-360.7850036621091	804.593994140625	1541.256958007812	-354.4540100097653	712.197021484375	1098.416015625	-553.492980957031	932.7880249023438	1633.370971679688	-322.0889892578122	792.3480224609375	854.3530273437501	-683.648010253906	862.7949829101562	36.32899856567389	-290.3930053710938	672.156005859375	39.30099868774421	-334.0660095214844	781.85498046875	469.3750000000001	-383.7560119628905	777.6160278320312	458.2460021972657	-267.6730041503905	729.4210205078125	88.29900360107428	-282.2550048828125	833.7540283203125	27.50399971008309	-384.2070007324219	803.7999877929688	73.72899627685554	-329.3619995117188	731.8699951171875	959.1179809570314	-303.6610107421873	798.2429809570312	1383.912963867188	-437.9549865722653	857.405029296875	527.8120117187501	-315.115997314453	904.125	692.7219848632814	-319.3059997558592	808.02197265625	565.5180053710939	-430.5580139160155	776.8779907226562	208.1710052490235	-323.1969909667968	743.3709716796875	299.1380004882814	-435.2919921874999	858.9089965820312	40.7669982910157	-335.9230041503906	811.3140258789062	384.0379943847657	-325.1289978027343	820.6599731445312	890.5440063476564	-638.2089843749998	754.5989990234375	890.3389892578126	-661.8829956054685	713.1199951171875	75.05400085449222	-101.583999633789	876.3109741210938	958.0239868164062	-115.1809997558592	696.0560302734375	1339.222045898438	-158.9290008544919	793.06201171875	1526.89697265625	-195.1009979248043	681.7490234375	1102.162963867188	-18.84000015258765	916.9559936523438	1617.639038085938	-198.3609924316403	745.3820190429688	853.5280151367188	154.4889984130861	854.4849853515625	36.14500045776371	-159.3329925537109	653.6589965820312	35.16299819946292	-131.3470001220703	796.8309936523438	474.9670104980469	-93.94300079345693	794.4149780273438	463.9240112304688	-213.511993408203	715.7420043945312	84.92900085449223	-184.7830047607422	813.9119873046875	26.76000022888185	-65.98100280761719	802.1820068359375	67.45400238037112	-130.39599609375	722.9439697265625	965.8770141601562	-201.8739929199216	777.3319702148438	1392.558959960938	-100.5960006713864	873.6069946289062	553.7579956054688	-140.0240020751952	907.031982421875	720.0800170898438	-120.9479980468748	806.0579833984375	588.8889770507812	-41.18799972534167	787.9149780273438	256.3299865722657	-143.5870056152343	738.31201171875	297.9049987792969	-35.34099960327142	846.885986328125	39.5299987792969	-114.0100021362305	828.635009765625	394.6489868164063	-144.9010009765624	776.06201171875	895.3579711914062	104.2990036010744	705.5679931640625	890.1900024414062	116.4660034179689	894.7379760742188	1190.420043945312	-259.0530090332028	690.8519897460938	1147.399047851562	-270.7890014648435	
879	8.779999999999999	771.7150268554688	1445.2900390625	-282.5369873046872	873.135986328125	1348.546997070312	-268.4559936523435	723.77099609375	77.94799804687509	-362.4670104980469	898.1309814453125	945.1320190429689	-360.7789916992185	804.572021484375	1541.253051757812	-354.4440002441403	712.1400146484375	1098.412963867188	-553.4769897460935	932.7789916992188	1633.359985351562	-322.0740051269528	792.3699951171875	854.3709716796876	-683.6149902343748	862.7930297851562	36.3269996643067	-290.3919982910156	672.156982421875	39.2919998168946	-334.0639953613281	781.8309936523438	469.3680114746094	-383.7439880371093	777.5850219726562	458.2380065917969	-267.6600036621093	729.4240112304688	88.29499816894537	-282.2529907226562	833.7540283203125	27.50099945068368	-384.2019958496094	803.7979736328125	73.72599792480476	-329.3569946289062	731.8350219726562	959.1300048828126	-303.6340026855466	798.2260131835938	1383.920043945312	-437.9590148925778	857.3920288085938	527.8200073242189	-315.0979919433593	904.0809936523438	692.7269897460939	-319.2860107421873	807.97998046875	565.5130004882814	-430.5450134277343	776.8679809570312	208.1690063476563	-323.1910095214843	743.3499755859375	299.134002685547	-435.2839965820312	858.9080200195312	40.76399993896491	-335.9200134277344	811.2940063476562	384.0390014648438	-325.1170043945311	820.676025390625	890.5650024414064	-638.1649780273435	754.5980224609375	890.3510131835939	-661.8430175781248	713.1190185546875	75.05100250244143	-101.5810012817383	876.2739868164062	958.0269775390625	-115.1709976196287	696.0260009765625	1339.218017578125	-158.9459991455075	793.02197265625	1526.89697265625	-195.0959930419918	681.7520141601562	1102.14501953125	-18.81699943542456	916.9229736328125	1617.630004882812	-198.3470001220699	745.5159912109375	853.5040283203125	154.4510040283205	854.489013671875	36.14500045776371	-159.3300018310547	653.6589965820312	35.1549987792969	-131.3410034179688	796.7899780273438	474.968994140625	-93.93699645996084	794.385009765625	463.9200134277344	-213.501007080078	715.739990234375	84.92700195312504	-184.7760009765625	813.9080200195312	26.75699996948244	-65.97899627685547	802.1810302734375	67.45500183105472	-130.3939971923828	722.8829956054688	965.8930053710938	-201.8690032958982	777.3040161132812	1392.546997070312	-100.5950012207028	873.5579833984375	553.7579956054688	-140.0140075683593	907.0150146484375	720.0850219726562	-120.9329986572264	805.9979858398438	588.8939819335938	-41.17900085449206	787.9000244140625	256.3320007324219	-143.5820007324218	738.2919921875	297.9020080566406	-35.33599853515619	846.8829956054688	39.52700042724612	-114.0059967041015	828.6119995117188	394.6530151367188	-144.8919982910155	776.177001953125	895.3670043945312	104.2350006103518	705.6710205078125	890.1649780273438	116.4499969482424	894.6909790039062	1190.411987304688	-259.0570068359372	690.81201171875	1147.402954101562	-270.7850036621091	
